<?xml version="1.0" standalone="no"?><!DOCTYPE svg PUBLIC "-//W3C//DTD SVG 1.1//EN" "http://www.w3.org/Graphics/SVG/1.1/DTD/svg11.dtd"><svg t="1626713080060" class="icon" viewBox="0 0 1024 1024" version="1.1" xmlns="http://www.w3.org/2000/svg" p-id="13047" xmlns:xlink="http://www.w3.org/1999/xlink" width="200" height="200"><defs><style type="text/css"></style></defs><path d="M827.7248 264.0384C797.8496 121.6768 669.8496 12.8 512 12.8c-123.776 0-230.4 67.0336-281.6 167.552C98.1248 197.0176 0 301.7216 0 431.5776c0 138.1632 115.2256 251.2384 256 251.2384h554.624c119.5008 0 213.376-92.16 213.376-209.4464 0-108.8384-89.6-200.96-196.2752-209.344" fill="#1989FA" fill-opacity=".3" p-id="13048"></path><path d="M512 448a115.2 115.2 0 1 1 0-230.4 115.2 115.2 0 0 1 0 230.4zM281.6 601.6a89.6 89.6 0 1 1 0-179.2 89.6 89.6 0 0 1 0 179.2zM742.4 601.6a89.6 89.6 0 1 1 0-179.2 89.6 89.6 0 0 1 0 179.2z" fill="#1989FA" p-id="13049"></path><path d="M512 396.8a64 64 0 1 0 0-128 64 64 0 0 0 0 128zM281.6 550.4a38.4 38.4 0 1 0 0-76.8 38.4 38.4 0 0 0 0 76.8zM742.4 550.4a38.4 38.4 0 1 0 0-76.8 38.4 38.4 0 0 0 0 76.8z" fill="#FFFFFF" p-id="13050"></path><path d="M89.6 934.4m-64 0a64 64 0 1 0 128 0 64 64 0 1 0-128 0Z" fill="#1989FA" p-id="13051"></path><path d="M934.4 934.4m-64 0a64 64 0 1 0 128 0 64 64 0 1 0-128 0Z" fill="#1989FA" p-id="13052"></path><path d="M512 844.8m-64 0a64 64 0 1 0 128 0 64 64 0 1 0-128 0Z" fill="#1989FA" p-id="13053"></path><path d="M486.4 416h51.2v371.2h-51.2zM256 563.2h51.2v243.2c0 84.8256-68.7744 153.6-153.6 153.6v-51.2a102.4 102.4 0 0 0 102.4-102.4V563.2zM768 563.2h-51.2v243.2c0 84.8256 68.7744 153.6 153.6 153.6v-51.2a102.4 102.4 0 0 1-102.4-102.4V563.2z" fill="#1989FA" p-id="13054"></path></svg>