<?xml version="1.0" standalone="no"?><!DOCTYPE svg PUBLIC "-//W3C//DTD SVG 1.1//EN" "http://www.w3.org/Graphics/SVG/1.1/DTD/svg11.dtd"><svg t="1626711431838" class="icon" viewBox="0 0 1024 1024" version="1.1" xmlns="http://www.w3.org/2000/svg" p-id="4402" xmlns:xlink="http://www.w3.org/1999/xlink" width="200" height="200"><defs><style type="text/css"></style></defs><path d="M778.2 613.7c-80.1 0-149.5 64.1-149.5 144.1s69.4 144.1 149.5 144.1 149.5-64.1 149.5-144.1c0-74.7-69.4-144.1-149.5-144.1z m0 234.9c-53.4 0-96.1-37.4-96.1-90.7s42.7-90.7 96.1-90.7 96.1 42.7 96.1 90.7c0 53.3-42.7 90.7-96.1 90.7zM516.7 389.5c90.7 0 160.1-69.4 160.1-154.8S607.4 79.9 516.7 79.9c-90.7 0-160.1 69.4-160.1 154.8s69.3 154.8 160.1 154.8z m0-256.2c58.7 0 106.8 48 106.8 101.4s-48 101.4-106.8 101.4-106.8-48-106.8-101.4 48-101.4 106.8-101.4zM239.1 603C159 603 94.9 667.1 94.9 747.1S159 891.3 239.1 891.3s144.1-64.1 144.1-144.1S319.1 603 239.1 603z m0 234.9c-48 0-90.7-42.7-90.7-90.7s42.7-90.7 90.7-90.7 90.7 42.7 90.7 90.7-42.7 90.7-90.7 90.7zM804.9 565.6l53.4-5.3c-5.3-101.4-58.7-197.5-138.8-256.2l-32 42.7c69.4 53.4 112.1 133.4 117.4 218.8zM351.2 341.4l-32-42.7C228.4 357.5 175 448.2 164.3 549.6l53.4 5.3c10.7-85.3 58.7-160.1 133.5-213.5zM383.2 843.2l-21.4 48c48 21.4 96.1 37.4 149.5 37.4 42.7 0 80.1-5.3 117.4-16l-16-48c-69.4 10.6-160.1 10.6-229.5-21.4z" fill="#00AA88" p-id="4403"></path></svg>