<?xml version="1.0" encoding="utf-8"?>
<!-- Generator: Adobe Illustrator 23.1.1, SVG Export Plug-In . SVG Version: 6.00 Build 0)  -->
<svg version="1.1" id="图层_1" xmlns="http://www.w3.org/2000/svg" xmlns:xlink="http://www.w3.org/1999/xlink" x="0px" y="0px"
	 viewBox="0 0 110 24" style="enable-background:new 0 0 110 24;" xml:space="preserve">
<style type="text/css">
	.st0{fill:#377DFF;}
</style>
<g id="SvgjsG1080" transform="matrix(1.2106539990366272,0,0,1.2106539990366272,158.6924693831227,55.0920083461529)">
	<path class="st0" d="M-128.3-43.9c0.4,0,0.7,0.1,1,0.4c0.3,0.3,0.4,0.6,0.4,1s-0.1,0.7-0.4,1s-0.6,0.4-1,0.4c-0.4,0-0.7-0.1-1-0.4
		c-0.3-0.3-0.4-0.6-0.4-1s0.1-0.7,0.4-1C-128.9-43.7-128.6-43.9-128.3-43.9z M-127.3-38.8v10.2h-1.9v-10.2H-127.3z M-114-44.9v16.2
		h-1.9v-1.5l0,0c-0.4,0.5-0.9,1-1.5,1.3s-1.3,0.4-2,0.4c-1.5,0-2.8-0.5-3.7-1.5c-0.9-1-1.4-2.3-1.4-3.8c0-1.6,0.5-2.8,1.4-3.8
		s2.2-1.5,3.7-1.5c0.7,0,1.4,0.1,2,0.4c0.6,0.3,1.1,0.7,1.5,1.3l0,0v-7.5H-114L-114-44.9z M-122.7-33.7c0,1,0.3,1.9,0.9,2.5
		s1.4,1,2.4,1s1.8-0.3,2.4-1c0.6-0.6,0.9-1.5,0.9-2.6c0-1-0.3-1.9-0.9-2.5s-1.4-1-2.5-1c-1,0-1.8,0.3-2.4,1
		C-122.4-35.6-122.7-34.8-122.7-33.7z M-106.3-39.1c1.6,0,2.9,0.5,3.9,1.6l-1.5,1.3c-0.7-0.8-1.5-1.1-2.5-1.1c-0.9,0-1.7,0.3-2.3,1
		c-0.6,0.7-0.9,1.5-0.9,2.6c0,1,0.3,1.8,0.9,2.5c0.6,0.6,1.4,1,2.4,1s1.8-0.4,2.5-1.1l1.4,1.4c-0.9,1-2.2,1.6-3.9,1.6
		c-1.6,0-2.8-0.5-3.8-1.5s-1.5-2.2-1.5-3.8c0-1.6,0.5-2.9,1.5-3.9S-107.9-39-106.3-39.1z M-98.1-41.7v2.8h2.8v1.7h-2.8v4.9
		c0,0.7,0.1,1.2,0.3,1.5c0.2,0.4,0.6,0.5,1.2,0.5s1-0.1,1.4-0.3v1.8c-0.4,0.2-1,0.3-1.8,0.3s-1.4-0.1-1.8-0.4
		c-0.4-0.2-0.7-0.6-0.9-1c-0.2-0.4-0.3-1.1-0.3-2v-5.4h-2.2V-39h2.2v-2.8L-98.1-41.7L-98.1-41.7z M-90.9-44.9v7.6l0,0
		c0.3-0.6,0.7-1,1.3-1.3s1.3-0.5,2-0.5c1.1,0,2,0.3,2.7,1s1,1.6,1,2.8v6.6h-1.9v-6.1c0-0.8-0.2-1.4-0.6-1.9s-1-0.7-1.7-0.7
		c-0.9,0-1.6,0.3-2.1,0.9c-0.5,0.6-0.7,1.4-0.7,2.4v5.3h-1.9V-45h1.9V-44.9z M-76.3-39.1c1.6,0,2.8,0.5,3.6,1.5c0.9,1,1.3,2.3,1.3,4
		v0.5h-8.1c0,0.8,0.3,1.5,1,2.1s1.5,0.9,2.4,0.9c1.1,0,2-0.5,2.8-1.5l1.5,1.1c-1.1,1.4-2.6,2.1-4.5,2.1c-1.6,0-2.8-0.5-3.8-1.5
		c-0.9-1-1.4-2.3-1.5-3.8c0-1.5,0.5-2.8,1.5-3.8C-79.1-38.5-77.8-39-76.3-39.1z M-73.4-34.6c0-1-0.3-1.7-0.8-2.2s-1.2-0.8-2.1-0.8
		c-0.6,0-1.1,0.1-1.6,0.4c-0.5,0.3-0.9,0.7-1.1,1.1s-0.4,0.9-0.4,1.4L-73.4-34.6L-73.4-34.6z M-63.9-39.1c1.5,0,2.5,0.6,3.2,1.9
		c0.3-0.6,0.8-1.1,1.3-1.4c0.6-0.3,1.2-0.5,1.9-0.5c2.6,0,3.8,1.5,3.9,4.4v6h-1.9v-5.8c0-1-0.2-1.7-0.5-2.2s-0.9-0.7-1.6-0.7
		c-0.9,0-1.5,0.3-1.9,0.8s-0.6,1.3-0.6,2.2v5.6H-62v-5.5c0-1.2-0.2-2-0.5-2.5s-0.9-0.7-1.6-0.7c-0.8,0-1.4,0.3-1.9,0.9
		c-0.5,0.6-0.7,1.4-0.7,2.3v5.4H-69v-10.2h1.8v1.6l0,0c0.2-0.5,0.6-0.9,1.3-1.3C-65.3-38.9-64.6-39.1-63.9-39.1z M-46.1-39.1
		c1.6,0,2.8,0.5,3.6,1.5c0.9,1,1.3,2.3,1.3,4v0.5h-8.1c0,0.8,0.3,1.5,1,2.1s1.5,0.9,2.4,0.9c1.1,0,2-0.5,2.8-1.5l1.5,1.1
		c-1.1,1.4-2.6,2.1-4.5,2.1c-1.6,0-2.8-0.5-3.8-1.5c-0.9-1-1.4-2.3-1.5-3.8c0-1.5,0.5-2.8,1.5-3.8C-48.9-38.5-47.7-39-46.1-39.1z
		 M-43.3-34.6c0-1-0.3-1.7-0.8-2.2s-1.2-0.8-2.1-0.8c-0.6,0-1.1,0.1-1.6,0.4s-0.9,0.7-1.1,1.1c-0.3,0.5-0.4,0.9-0.4,1.4L-43.3-34.6
		L-43.3-34.6z"/>
</g>
</svg>
